<svg width="3600" height="853" viewBox="0 0 3600 853" fill="none" xmlns="http://www.w3.org/2000/svg">
<path d="M0.0686035 682.29L237.29 18.8978H337.052V137.049H302.572L124.196 682.29H0.0686035ZM120.058 510.81L151.78 419.324H455.662L487.384 510.81H120.058ZM483.246 682.29L304.87 137.049V18.8978H370.612L607.374 682.29H483.246Z" fill="white"/>
<path d="M667.139 682.29V194.975H781.152V271.29H783.911C796.477 244.932 815.172 223.938 839.998 208.307C865.13 192.676 896.085 184.861 932.863 184.861C986.499 184.861 1027.87 201.105 1056.99 233.592C1086.41 266.08 1101.13 310.521 1101.13 366.914V682.29H986.652V389.901C986.652 355.268 978.53 328.603 962.286 309.908C946.042 290.906 921.677 281.404 889.189 281.404C867.428 281.404 848.426 286.461 832.182 296.576C815.938 306.383 803.373 320.175 794.484 337.951C785.596 355.421 781.152 375.956 781.152 399.555V682.29H667.139Z" fill="white"/>
<path d="M1336.97 690.565C1304.79 690.565 1276.28 684.436 1251.46 672.176C1226.94 659.61 1207.78 642.293 1193.99 620.226C1180.51 597.853 1173.76 572.261 1173.76 543.451V542.532C1173.76 513.415 1180.97 488.59 1195.37 468.055C1210.08 447.214 1231.23 430.817 1258.81 418.864C1286.4 406.605 1319.8 399.249 1359.03 396.797L1545.23 385.304V461.159L1375.12 471.733C1346.93 473.572 1325.32 480.315 1310.3 491.961C1295.28 503.608 1287.78 519.086 1287.78 538.394V538.854C1287.78 558.776 1295.28 574.56 1310.3 586.206C1325.63 597.546 1345.86 603.216 1370.99 603.216C1393.05 603.216 1412.67 598.772 1429.83 589.884C1447.3 580.996 1461.09 568.89 1471.21 553.565C1481.32 538.241 1486.38 520.924 1486.38 501.616V355.421C1486.38 330.902 1478.56 311.593 1462.93 297.495C1447.61 283.09 1425.39 275.888 1396.27 275.888C1369.3 275.888 1347.69 281.711 1331.45 293.357C1315.21 304.697 1305.09 319.409 1301.11 337.492L1300.19 341.629H1194.45L1194.91 336.112C1197.36 307.303 1207.02 281.558 1223.87 258.878C1240.73 235.891 1264.02 217.808 1293.75 204.629C1323.79 191.45 1359.34 184.861 1400.41 184.861C1441.17 184.861 1476.42 191.604 1506.15 205.089C1536.18 218.574 1559.32 237.423 1575.57 261.636C1592.12 285.848 1600.39 314.352 1600.39 347.146V682.29H1486.38V607.354H1483.62C1474.43 624.211 1462.47 638.922 1447.76 651.488C1433.05 664.054 1416.19 673.708 1397.19 680.451C1378.5 687.194 1358.42 690.565 1336.97 690.565Z" fill="white"/>
<path d="M1696.48 682.29V18.8978H1810.95V682.29H1696.48Z" fill="white"/>
<path d="M2124.03 691.944C2076.22 691.944 2034.69 681.83 1999.44 661.602C1964.19 641.068 1936.76 611.951 1917.15 574.253C1897.84 536.249 1888.19 491.042 1888.19 438.633V437.713C1888.19 385.61 1897.99 340.71 1917.61 303.012C1937.22 265.007 1964.65 235.891 1999.9 215.663C2035.15 195.128 2076.37 184.861 2123.57 184.861C2171.07 184.861 2212.45 195.128 2247.7 215.663C2283.25 235.891 2310.83 264.854 2330.45 302.552C2350.06 340.25 2359.87 385.304 2359.87 437.713V438.633C2359.87 491.348 2350.06 536.709 2330.45 574.713C2311.14 612.411 2283.86 641.374 2248.61 661.602C2213.37 681.83 2171.84 691.944 2124.03 691.944ZM2124.49 599.539C2148.7 599.539 2169.69 593.256 2187.47 580.69C2205.25 568.124 2218.89 549.887 2228.39 525.981C2238.19 501.769 2243.1 472.653 2243.1 438.633V437.713C2243.1 403.999 2238.19 375.19 2228.39 351.284C2218.58 327.378 2204.63 309.142 2186.55 296.576C2168.77 284.01 2147.78 277.727 2123.57 277.727C2099.97 277.727 2079.13 284.01 2061.04 296.576C2043.27 309.142 2029.32 327.378 2019.21 351.284C2009.4 375.19 2004.5 403.999 2004.5 437.713V438.633C2004.5 472.653 2009.4 501.769 2019.21 525.981C2029.32 549.887 2043.27 568.124 2061.04 580.69C2079.13 593.256 2100.27 599.539 2124.49 599.539Z" fill="white"/>
<path d="M2653.18 852.85C2610.27 852.85 2572.73 846.874 2540.54 834.921C2508.67 823.274 2483.23 807.184 2464.23 786.649C2445.23 766.114 2433.43 743.128 2428.83 717.689L2427.91 713.552H2540.08L2541.92 717.23C2548.05 731.328 2560.62 742.975 2579.62 752.169C2598.93 761.67 2623.3 766.421 2652.72 766.421C2690.11 766.421 2718.77 757.226 2738.69 738.837C2758.61 720.448 2768.57 695.776 2768.57 664.82V594.481H2766.27C2757.38 611.951 2745.43 626.969 2730.41 639.535C2715.7 652.101 2698.39 661.909 2678.46 668.958C2658.85 676.007 2637.39 679.532 2614.1 679.532C2573.34 679.532 2537.79 669.571 2507.44 649.649C2477.41 629.728 2454.11 601.531 2437.56 565.059C2421.32 528.28 2413.2 484.606 2413.2 434.035V433.575C2413.2 382.086 2421.47 337.951 2438.02 301.173C2454.88 264.088 2478.48 235.431 2508.82 215.203C2539.16 194.975 2574.87 184.861 2615.94 184.861C2638.93 184.861 2660.07 188.845 2679.38 196.814C2698.69 204.476 2715.55 215.203 2729.95 228.995C2744.66 242.787 2756.62 259.031 2765.81 277.727H2768.57V194.975H2883.04V668.498C2883.04 705.277 2873.7 737.458 2855 765.042C2836.3 792.932 2809.79 814.54 2775.47 829.864C2741.14 845.188 2700.38 852.85 2653.18 852.85ZM2649.96 591.263C2673.87 591.263 2694.71 584.98 2712.48 572.414C2730.26 559.542 2744.05 541.459 2753.86 518.166C2763.97 494.873 2769.03 467.596 2769.03 436.334V435.874C2769.03 404.306 2763.97 377.029 2753.86 354.042C2743.75 330.749 2729.8 312.819 2712.02 300.253C2694.25 287.687 2673.56 281.404 2649.96 281.404C2625.44 281.404 2604.14 287.687 2586.06 300.253C2567.97 312.819 2554.03 330.596 2544.22 353.582C2534.41 376.569 2529.51 403.999 2529.51 435.874V436.334C2529.51 468.209 2534.41 495.792 2544.22 519.086C2554.03 542.072 2567.97 559.848 2586.06 572.414C2604.14 584.98 2625.44 591.263 2649.96 591.263Z" fill="white"/>
<path d="M2980.05 682.29V194.975H3094.52V682.29H2980.05ZM3037.05 125.096C3019.28 125.096 3004.26 118.966 2992 106.706C2979.74 94.447 2973.61 79.7356 2973.61 62.5723C2973.61 45.1025 2979.74 30.3911 2992 18.4381C3004.26 6.17858 3019.28 0.0488281 3037.05 0.0488281C3055.14 0.0488281 3070.31 6.17858 3082.57 18.4381C3094.83 30.3911 3100.96 45.1025 3100.96 62.5723C3100.96 79.7356 3094.83 94.447 3082.57 106.706C3070.31 118.966 3055.14 125.096 3037.05 125.096Z" fill="white"/>
<path d="M3335.88 690.565C3303.7 690.565 3275.19 684.436 3250.37 672.176C3225.85 659.61 3206.69 642.293 3192.9 620.226C3179.42 597.853 3172.67 572.261 3172.67 543.451V542.532C3172.67 513.415 3179.88 488.59 3194.28 468.055C3208.99 447.214 3230.14 430.817 3257.72 418.864C3285.31 406.605 3318.72 399.249 3357.95 396.797L3544.14 385.304V461.159L3374.04 471.733C3345.84 473.572 3324.23 480.315 3309.21 491.961C3294.2 503.608 3286.69 519.086 3286.69 538.394V538.854C3286.69 558.776 3294.2 574.56 3309.21 586.206C3324.54 597.546 3344.77 603.216 3369.9 603.216C3391.97 603.216 3411.58 598.772 3428.74 589.884C3446.21 580.996 3460.01 568.89 3470.12 553.565C3480.23 538.241 3485.29 520.924 3485.29 501.616V355.421C3485.29 330.902 3477.48 311.593 3461.85 297.495C3446.52 283.09 3424.3 275.888 3395.18 275.888C3368.21 275.888 3346.61 281.711 3330.36 293.357C3314.12 304.697 3304 319.409 3300.02 337.492L3299.1 341.629H3193.36L3193.82 336.112C3196.27 307.303 3205.93 281.558 3222.79 258.878C3239.64 235.891 3262.94 217.808 3292.66 204.629C3322.7 191.45 3358.25 184.861 3399.32 184.861C3440.08 184.861 3475.33 191.604 3505.06 205.089C3535.1 218.574 3558.24 237.423 3574.48 261.636C3591.03 285.848 3599.31 314.352 3599.31 347.146V682.29H3485.29V607.354H3482.53C3473.34 624.211 3461.39 638.922 3446.67 651.488C3431.96 664.054 3415.11 673.708 3396.1 680.451C3377.41 687.194 3357.33 690.565 3335.88 690.565Z" fill="white"/>
</svg>
