<svg width="1511" height="1511" viewBox="0 0 1511 1511" fill="none" xmlns="http://www.w3.org/2000/svg">
<rect width="1510.92" height="1510.92" rx="250" fill="black"/>
<path d="M544.436 619.482C521.311 609.737 521.311 576.757 544.436 567.012L990.067 379.236C1008.68 371.391 1029.23 385.156 1029.23 405.47V781.025C1029.23 801.339 1008.68 815.103 990.067 807.258L544.436 619.482Z" fill="black"/>
<path d="M544.436 619.482C521.311 609.737 521.311 576.757 544.436 567.012L990.067 379.236C1008.68 371.391 1029.23 385.156 1029.23 405.47V781.025C1029.23 801.339 1008.68 815.103 990.067 807.258L544.436 619.482Z" fill="white"/>
<path d="M964.794 889.74C987.919 899.485 987.919 932.465 964.794 942.21L519.163 1129.98C500.547 1137.83 480 1124.07 480 1103.75L480 728.199C480 707.882 500.547 694.118 519.163 701.962L964.794 889.74Z" fill="black"/>
<path d="M964.794 889.74C987.919 899.485 987.919 932.465 964.794 942.21L519.163 1129.98C500.547 1137.83 480 1124.07 480 1103.75L480 728.199C480 707.882 500.547 694.118 519.163 701.962L964.794 889.74Z" fill="white"/>
</svg>
